# xmcd CD database file
#
# Track frame offsets:
#	150
#	17050
#	32667
#	52005
#	79120
#	100400
#	117250
#	132955
#	152332
#	179675
#
# Disc length: 2675 seconds
#
# Revision: 0
# Processed by: cddbd v1.5.1PL0 Copyright (c) Steve Scherf et al.
# Submitted via: CDex 1.51
#
DISCID=7d0a710a
DTITLE=石川セリ - MI・YO・TA
DYEAR=1997
DGENRE=Pop
TTITLE0=MI・YO・TA
TTITLE1=燃える秋
TTITLE2=翼
TTITLE3=死んだ男の残したものは
TTITLE4=小さな空
TTITLE5=MI・YO・TA [Instrumental]
TTITLE6=燃える秋 [Instrumental]
TTITLE7=翼 [Instrumental]
TTITLE8=死んだ男の残したものは [Instrumental]
TTITLE9=小さな空 [Instrumental]
EXTD=YEAR: 1997
EXTT0=
EXTT1=
EXTT2=
EXTT3=
EXTT4=
EXTT5=
EXTT6=
EXTT7=
EXTT8=
EXTT9=
PLAYORDER=
